<?xml version="1.0" standalone="no"?>
<!DOCTYPE svg PUBLIC "-//W3C//DTD SVG 20010904//EN"
 "http://www.w3.org/TR/2001/REC-SVG-20010904/DTD/svg10.dtd">
<svg version="1.0" xmlns="http://www.w3.org/2000/svg"
 width="894.000000pt" height="894.000000pt" viewBox="0 0 894.000000 894.000000"
 preserveAspectRatio="xMidYMid meet">
<metadata>
Created by potrace 1.11, written by Peter Selinger 2001-2013
</metadata>
<g transform="translate(0.000000,894.000000) scale(0.100000,-0.100000)"
fill="#000000" stroke="none">
<path d="M4480 8702 c0 -6 11 -35 24 -64 75 -166 131 -334 147 -439 18 -128 6
-474 -25 -681 -37 -243 -62 -338 -91 -338 -19 0 -19 -2 9 143 42 208 58 455
37 562 l-8 40 -6 -35 c-3 -19 -16 -93 -28 -165 -54 -323 -106 -428 -334 -670
-79 -84 -85 -81 -85 50 -1 336 -134 740 -335 1020 -77 107 -185 237 -202 242
-7 3 17 -64 52 -147 139 -327 155 -405 155 -759 0 -320 -23 -681 -44 -681 -6
1 -28 36 -50 78 -106 212 -203 344 -406 556 -205 214 -379 314 -605 349 l-30
5 27 -22 c43 -33 100 -160 106 -234 4 -55 1 -69 -27 -127 -46 -92 -238 -274
-404 -381 -143 -92 -485 -337 -567 -407 -8 -6 -75 -61 -150 -120 -74 -59 -148
-119 -165 -133 -16 -14 -61 -43 -100 -66 -93 -55 -112 -73 -145 -139 -16 -30
-45 -75 -66 -100 -65 -77 -168 -220 -332 -460 -244 -359 -332 -512 -427 -750
-42 -104 -98 -289 -88 -289 7 0 28 23 46 51 16 24 26 26 140 38 236 25 337
-11 557 -197 95 -81 190 -175 190 -188 0 -6 -39 -27 -88 -47 -174 -73 -281
-155 -446 -346 -44 -50 -85 -91 -92 -91 -7 0 -34 24 -61 54 -37 40 -52 66 -62
107 -20 85 -25 197 -12 293 7 48 10 90 8 92 -2 2 -16 -20 -30 -48 -15 -29 -27
-47 -27 -40 0 13 26 155 40 217 l9 40 -19 -25 c-21 -27 -100 -182 -125 -245
-36 -90 -77 -286 -94 -453 -11 -100 2 -216 40 -381 19 -83 19 -85 1 -145 -99
-318 -152 -587 -152 -779 0 -231 106 -558 281 -867 110 -195 181 -272 367
-400 150 -104 224 -136 366 -160 175 -29 282 -35 403 -21 240 28 433 92 1418
470 402 155 625 221 743 221 39 0 40 -1 65 -59 25 -57 55 -95 44 -55 -3 11 -8
41 -12 68 -6 47 -6 49 17 43 13 -4 30 -7 38 -7 41 -1 42 -13 10 -139 -17 -67
-46 -163 -64 -214 -31 -84 -47 -156 -92 -412 -20 -119 -22 -122 -71 -107 -48
14 -85 5 -145 -36 -24 -16 -56 -32 -71 -36 -40 -9 -87 -64 -137 -158 -32 -61
-50 -83 -78 -97 -71 -36 -150 -133 -167 -203 -8 -32 -5 -33 50 -13 46 16 155
20 155 5 0 -6 -12 -28 -26 -50 -15 -22 -25 -42 -23 -45 3 -2 34 3 69 11 72 17
192 13 199 -8 2 -6 16 -23 30 -36 25 -24 29 -24 140 -19 88 5 119 3 141 -8 18
-9 49 -13 86 -11 55 3 62 6 131 66 41 35 85 83 99 106 28 48 53 61 92 46 15
-6 47 -13 72 -17 25 -3 65 -16 90 -27 32 -16 64 -22 115 -23 38 0 80 -6 92
-13 16 -9 96 -11 303 -9 277 2 281 2 275 -18 -3 -11 -13 -53 -22 -94 l-17 -74
29 -23 c17 -13 40 -24 53 -24 l23 0 -20 26 c-27 34 -27 68 0 110 29 47 55 60
69 35 15 -30 12 -67 -10 -113 -11 -23 -20 -45 -20 -50 0 -14 65 -9 88 8 22 15
24 15 36 -2 11 -15 23 -16 97 -10 50 4 100 14 124 26 34 17 41 18 55 5 16 -14
109 -39 117 -31 3 3 -2 15 -11 28 -20 28 -22 141 -3 178 18 35 45 37 57 5 11
-30 3 -122 -16 -177 l-13 -37 114 0 113 0 32 35 c31 34 31 37 33 137 1 65 -3
110 -10 124 -12 20 -10 21 52 32 36 6 72 14 80 18 14 5 16 -6 14 -83 -2 -83 1
-94 34 -166 37 -81 54 -93 79 -57 10 16 27 23 65 26 33 4 58 12 69 24 22 25
28 24 60 -6 35 -33 85 -41 168 -26 58 10 71 9 85 -3 21 -19 37 -9 46 27 8 29
5 29 98 5 31 -7 46 -5 81 11 52 26 52 26 83 1 21 -16 29 -18 41 -8 11 10 13
28 8 85 l-6 73 30 0 c24 0 36 -8 58 -40 40 -59 57 -49 55 30 -1 52 -9 78 -37
133 -20 37 -36 70 -36 72 0 2 16 9 35 15 43 14 216 193 264 273 58 98 85 211
97 402 5 71 13 112 27 140 l20 40 8 -30 c13 -53 31 -345 24 -388 l-7 -42 33
45 c64 88 223 357 275 465 28 61 62 141 73 180 45 145 157 198 238 112 29 -31
31 -37 36 -142 6 -110 49 -385 87 -554 26 -116 25 -135 -5 -215 -26 -69 -34
-139 -14 -119 12 12 96 198 196 433 188 442 268 832 338 1640 38 439 49 1279
20 1535 -8 72 -18 202 -21 290 -6 164 -20 235 -65 334 -11 24 -29 67 -40 95
-126 322 -334 758 -499 1046 -250 438 -540 832 -800 1090 -69 69 -145 148
-168 177 -35 43 -61 61 -154 107 -62 30 -153 71 -203 90 -49 19 -132 51 -183
71 -155 59 -210 69 -302 51 -75 -14 -107 -26 -173 -67 l-31 -18 99 6 100 6 62
-60 c48 -47 64 -70 78 -113 26 -85 30 -239 11 -376 -46 -335 -99 -803 -126
-1114 -51 -585 -58 -643 -91 -732 -35 -95 -110 -247 -180 -364 -47 -79 -145
-184 -171 -184 -40 0 -184 32 -204 45 -33 21 -32 74 5 183 16 48 37 115 46
150 10 34 22 62 27 62 26 0 52 -27 72 -73 19 -44 34 -87 82 -236 7 -21 13 -9
23 42 12 64 -8 187 -68 426 -27 108 -52 221 -56 251 -6 59 -23 170 -31 209
l-5 24 23 -21 c81 -73 131 -112 143 -112 8 0 15 -3 15 -7 0 -5 9 -19 20 -33
18 -22 17 -17 -5 50 -14 41 -37 120 -51 175 -32 130 -46 158 -170 332 -57 80
-104 154 -104 164 0 10 -18 52 -40 94 -22 42 -40 79 -40 83 0 4 43 13 96 19
72 9 113 20 160 43 35 17 64 35 64 39 0 5 -40 18 -89 29 -120 28 -157 47 -296
153 -106 81 -164 115 -267 157 -16 6 -28 17 -27 24 0 7 32 39 69 71 129 107
270 298 270 364 0 21 -8 16 -67 -44 -107 -108 -299 -193 -434 -193 -67 0 -191
18 -202 29 -4 4 8 30 27 58 96 139 173 385 159 504 l-6 53 -17 -39 c-48 -113
-78 -162 -132 -221 -33 -35 -66 -64 -72 -64 -8 0 -17 63 -29 198 -38 438 -97
652 -237 867 -99 150 -230 309 -230 277z m199 -274 c120 -179 151 -264 204
-568 36 -204 50 -372 50 -620 0 -235 -8 -294 -65 -464 -30 -91 -133 -334 -148
-349 -4 -5 -13 24 -20 65 -7 40 -26 115 -42 166 -34 108 -68 152 -159 208 -33
19 -59 41 -59 47 0 7 16 39 36 71 58 96 93 171 119 254 65 209 113 723 86 927
-13 101 -46 216 -97 342 -19 47 -34 88 -34 92 1 12 51 -55 129 -171z m-913
-316 c80 -113 145 -234 184 -339 15 -43 35 -95 44 -115 56 -132 91 -338 102
-598 4 -115 3 -127 -15 -150 l-21 -25 -1 135 c0 103 -5 147 -19 185 -20 55
-19 57 -50 -60 -70 -257 -150 -469 -204 -540 -15 -19 -15 -19 -16 10 0 17 6
98 14 180 8 83 20 286 27 453 19 475 0 614 -126 912 -12 30 -26 66 -30 80 -7
24 -7 24 19 -5 15 -16 56 -72 92 -123z m-928 -455 c80 -48 162 -117 202 -169
43 -57 75 -116 68 -124 -4 -3 -55 -23 -115 -44 -59 -21 -175 -68 -257 -104
l-149 -66 85 88 c52 54 95 110 112 145 26 52 28 65 23 130 -3 48 -14 92 -31
131 -31 67 -29 68 62 13z m27 33 c3 -5 2 -10 -4 -10 -5 0 -13 5 -16 10 -3 6
-2 10 4 10 5 0 13 -4 16 -10z m1691 -107 c-27 -291 -120 -577 -237 -732 -20
-27 -40 -59 -44 -72 -4 -13 -25 -54 -46 -91 -43 -74 -124 -138 -172 -138 -25
0 -27 2 -22 41 3 22 12 54 20 69 18 34 19 60 4 60 -20 0 3 93 37 149 41 68 69
104 202 257 153 175 213 290 243 461 6 35 13 63 16 63 3 0 3 -30 -1 -67z m612
-54 c-6 -18 -20 -42 -29 -53 -13 -13 -16 -27 -12 -49 5 -23 3 -28 -7 -22 -10
6 -12 4 -7 -8 4 -10 2 -16 -5 -14 -6 1 -13 -4 -16 -12 -3 -9 0 -11 8 -6 9 5
11 4 6 -3 -4 -7 -14 -12 -22 -12 -8 0 -12 -4 -9 -10 3 -5 2 -10 -3 -10 -11 0
-52 -91 -52 -116 0 -10 -7 -25 -15 -34 -22 -24 -29 -64 -10 -56 12 4 11 0 -2
-21 -18 -27 -18 -26 -21 85 l-3 113 81 86 c44 48 91 108 103 134 24 55 33 59
15 8z m1512 -80 c23 -13 63 -50 88 -82 l45 -57 -68 -143 c-37 -78 -71 -145
-74 -150 -4 -4 -7 46 -7 110 1 173 -21 248 -95 328 l-40 43 54 -12 c29 -7 73
-23 97 -37z m-1617 -204 c-3 -9 -8 -14 -10 -11 -3 3 -2 9 2 15 9 16 15 13 8
-4z m592 -64 c-3 -6 -11 -11 -17 -11 -6 0 -6 6 2 15 14 17 26 13 15 -4z m-615
-10 c-5 -11 -15 -23 -21 -27 -6 -3 -3 5 6 20 20 30 30 35 15 7z m586 -23 c4
-7 4 -10 -1 -6 -4 4 -19 -2 -33 -12 -14 -11 -28 -17 -31 -14 -3 4 -1 9 5 11 6
2 20 10 30 18 23 18 21 18 30 3z m-1106 -13 c0 -8 -50 -105 -54 -105 -7 0 39
110 47 110 4 0 7 -2 7 -5z m-503 -305 c-4 -36 -9 -101 -12 -145 -8 -173 -63
-332 -158 -462 -46 -62 -184 -188 -223 -203 -12 -5 -50 -34 -85 -65 -69 -62
-99 -82 -99 -66 0 5 5 13 10 16 6 3 10 16 10 27 0 12 17 60 39 107 21 47 56
128 77 179 28 69 64 130 140 235 168 231 191 282 288 622 10 37 11 33 16 -70
3 -60 1 -139 -3 -175z m1511 262 c-7 -10 -40 -43 -72 -73 -33 -30 -67 -61 -76
-69 -61 -59 -224 -73 -305 -26 -41 25 -115 104 -115 125 0 14 17 14 22 0 2 -5
19 -12 38 -15 19 -3 59 -9 89 -14 118 -21 231 -1 373 65 64 30 62 30 46 7z
m-2611 -109 c-33 -48 -69 -131 -92 -208 -9 -33 -34 -91 -55 -130 -21 -38 -45
-96 -54 -127 -9 -31 -55 -162 -102 -290 -209 -572 -391 -1121 -381 -1151 6
-18 36 35 62 110 25 72 29 74 16 6 -5 -23 -5 -40 0 -38 4 3 31 -15 59 -40 28
-25 57 -45 65 -45 8 0 15 -6 15 -13 0 -8 9 -22 20 -32 20 -18 20 -17 20 8 0
33 59 287 110 478 62 228 160 499 260 714 18 39 40 88 50 110 9 22 27 60 38
85 11 25 35 79 52 122 17 42 38 79 46 82 11 4 13 13 9 28 -4 16 -3 19 3 10 13
-19 52 45 52 84 1 16 7 43 15 59 13 29 13 29 14 5 1 -14 -4 -52 -9 -85 -14
-89 -47 -423 -70 -726 -12 -147 -25 -291 -31 -320 -6 -31 -12 -333 -16 -694
l-5 -640 32 -155 c41 -198 351 -1438 419 -1675 29 -99 76 -252 106 -340 29
-88 52 -161 51 -163 -2 -1 -43 49 -93 110 -256 320 -407 559 -468 742 -39 117
-72 292 -85 451 -6 77 -15 176 -20 220 -5 44 -17 148 -25 230 -9 83 -27 208
-41 278 -13 70 -29 183 -35 250 -11 127 -42 284 -65 327 -16 30 -17 16 -4 -70
12 -77 24 -174 40 -325 6 -60 18 -137 26 -170 19 -81 43 -256 54 -385 18 -221
61 -568 80 -649 11 -48 32 -121 47 -163 24 -72 25 -79 10 -96 -34 -37 -49 -93
-43 -153 6 -51 4 -60 -19 -87 -31 -37 -74 -48 -109 -30 -31 16 -136 151 -166
213 -19 40 -24 76 -36 283 -23 413 -26 440 -37 414 -7 -16 -7 -120 0 -331 10
-301 11 -309 36 -366 15 -31 50 -87 78 -123 l52 -65 -22 -68 c-13 -42 -42 -95
-76 -142 -74 -101 -91 -145 -131 -326 -3 -13 -7 -21 -11 -18 -11 11 -53 296
-98 662 -54 436 -80 1264 -51 1626 19 241 19 269 6 269 -5 0 -10 -9 -10 -20 0
-16 -7 -20 -32 -22 -74 -4 -153 6 -171 21 -14 11 -17 9 -24 -16 -16 -57 -7
-610 15 -913 35 -488 111 -911 244 -1353 11 -37 18 -70 15 -73 -9 -9 -131 202
-220 381 -141 281 -193 400 -281 650 -32 88 -64 179 -72 202 -9 24 -20 45 -25
48 -5 3 -39 65 -75 138 -166 330 -273 477 -540 738 -212 206 -341 300 -474
344 -60 20 -211 24 -307 7 -29 -5 -53 -8 -53 -7 0 2 26 59 59 127 130 276 288
544 360 613 18 16 47 57 66 90 81 144 320 404 489 532 55 42 145 115 201 163
258 223 600 472 755 550 25 13 63 35 85 50 47 32 247 132 360 181 44 18 98 43
120 55 22 11 42 19 44 17 2 -1 -8 -20 -22 -40z m2508 -63 c-10 -11 -22 -20
-28 -20 -5 0 1 9 14 20 31 25 37 25 14 0z m2096 -212 c136 -134 222 -230 284
-313 49 -66 113 -151 141 -190 29 -38 77 -113 107 -165 30 -52 75 -130 100
-173 66 -114 143 -307 235 -592 153 -471 214 -684 233 -815 124 -825 144
-1030 143 -1465 -2 -559 -63 -1151 -160 -1537 -42 -170 -171 -565 -180 -555
-5 5 -49 227 -76 387 -19 110 -23 171 -23 330 1 173 4 217 34 390 57 341 62
399 59 710 -2 212 2 332 15 468 20 216 22 415 5 515 -13 71 -13 69 -19 -148
-4 -121 -14 -294 -22 -385 -15 -160 -17 -170 -72 -315 -165 -436 -201 -564
-255 -905 -54 -347 -76 -422 -177 -620 -55 -109 -172 -305 -173 -290 0 3 18
59 39 125 155 475 216 769 273 1325 19 185 22 275 22 645 0 448 -7 564 -69
1045 -8 63 -21 176 -30 250 -8 74 -19 151 -24 170 -5 19 -19 105 -31 190 -54
390 -98 602 -216 1034 -91 332 -172 567 -309 891 -93 220 -88 207 -67 196 10
-5 106 -97 213 -203z m-418 -21 c81 -107 255 -453 312 -622 59 -175 114 -443
169 -830 24 -166 95 -562 116 -649 11 -44 30 -99 41 -122 19 -40 61 -266 108
-589 49 -334 62 -666 41 -1070 -38 -720 -74 -1054 -164 -1520 -47 -243 -52
-253 -60 -135 -12 164 -37 372 -52 440 -36 155 -63 289 -69 345 -3 33 -8 213
-10 400 -3 338 -3 341 -34 475 -70 304 -121 576 -121 644 0 26 -6 67 -27 175
-3 17 -7 21 -15 13 -18 -18 29 -394 73 -582 16 -69 38 -161 49 -205 28 -120
52 -286 48 -340 l-3 -48 -44 64 c-186 267 -245 322 -404 374 -72 24 -116 21
-176 -9 -72 -38 -120 -137 -193 -396 -32 -113 -17 2378 17 2860 22 312 91 736
155 960 16 58 33 126 36 152 4 26 10 45 14 43 5 -3 7 7 5 22 -2 16 1 51 6 78
10 49 47 216 56 245 2 9 15 -5 31 -35 15 -28 58 -90 95 -138z m-4973 103 c-8
-5 -19 -10 -25 -10 -5 0 -3 5 5 10 8 5 20 10 25 10 6 0 3 -5 -5 -10z m3370
-40 c33 -16 102 -64 155 -105 53 -41 115 -86 139 -100 47 -27 175 -75 202 -75
24 0 15 -6 -21 -14 -22 -5 -26 -4 -15 4 11 7 1 10 -40 11 -105 3 -125 6 -177
23 -54 18 -138 78 -187 133 -15 18 -32 30 -37 27 -5 -3 -6 2 -3 10 4 10 1 16
-8 16 -7 0 -31 23 -51 50 -21 28 -33 50 -27 50 6 0 37 -13 70 -30z m-3449 -17
c12 -16 12 -17 -2 -5 -14 10 -22 7 -54 -18 -21 -16 -40 -30 -43 -30 -3 0 -3 2
-1 4 8 9 82 66 84 66 1 0 9 -8 16 -17z m-124 -78 c0 -8 -4 -12 -9 -9 -5 3 -6
10 -3 15 9 13 12 11 12 -6z m-30 -20 c0 -8 -3 -13 -5 -10 -3 3 -15 -3 -26 -12
-15 -13 -14 -10 3 10 29 32 28 31 28 12z m2247 -135 c-15 -22 -28 -40 -31 -40
-7 0 30 65 41 72 18 13 17 10 -10 -32z m-2464 -34 c0 -2 -12 -11 -27 -20 l-28
-17 24 20 c23 21 31 25 31 17z m1914 -64 c13 -34 14 -47 5 -65 -12 -21 -12
-21 -19 -2 -4 11 -11 45 -15 75 -8 62 3 59 29 -8z m-2044 -36 c0 -2 -8 -10
-17 -17 -16 -13 -17 -12 -4 4 13 16 21 21 21 13z m1835 -191 c26 -189 26 -283
-2 -338 -23 -46 -93 -151 -93 -140 0 6 9 64 20 129 21 130 40 345 40 463 0 41
2 72 5 70 2 -3 16 -86 30 -184z m-1875 161 c0 -2 -8 -10 -17 -17 -16 -13 -17
-12 -4 4 13 16 21 21 21 13z m3110 -221 c-7 -9 -15 -13 -19 -10 -3 3 1 10 9
15 21 14 24 12 10 -5z m1292 -102 c97 -135 126 -193 154 -309 14 -59 30 -119
35 -133 10 -25 10 -25 -11 -6 -11 10 -19 24 -16 30 2 7 -16 36 -40 66 -25 30
-63 91 -84 136 -22 45 -45 83 -50 85 -19 6 -64 208 -47 208 2 0 29 -35 59 -77z
m-777 -105 c-16 -53 -48 -118 -58 -118 -15 0 -57 -41 -57 -56 0 -7 -11 -26
-25 -42 -13 -16 -21 -33 -17 -38 4 -5 -3 0 -15 10 -37 31 -38 53 -3 104 27 39
161 162 177 162 2 0 1 -10 -2 -22z m2392 -140 c-3 -8 -6 -5 -6 6 -1 11 2 17 5
13 3 -3 4 -12 1 -19z m-4135 -98 c-53 -66 -82 -140 -82 -213 0 -43 38 -166 60
-191 5 -6 18 -44 29 -84 18 -64 18 -73 4 -70 -20 4 -52 66 -105 203 -47 125
-54 204 -23 266 22 42 157 177 163 161 2 -6 -19 -39 -46 -72z m1628 -24 c0 -2
-8 -10 -17 -17 -16 -13 -17 -12 -4 4 13 16 21 21 21 13z m190 -135 c-11 -22
-25 -43 -31 -47 -8 -4 -9 -3 -5 4 4 7 3 12 -1 12 -12 0 -57 -62 -98 -135 l-34
-60 -1 66 c0 111 6 128 51 135 22 4 58 19 82 35 56 37 61 36 37 -10z m1465
-136 l-14 -120 5 100 c3 55 8 110 11 123 12 49 11 12 -2 -103z m-2504 58 c3
-43 -4 -72 -34 -138 -32 -74 -55 -107 -67 -100 -12 8 -49 -25 -65 -58 -8 -18
-27 -45 -41 -60 -14 -15 -23 -35 -20 -43 4 -11 0 -13 -18 -8 -14 3 -27 -1 -35
-10 -18 -21 -26 -20 -89 6 -47 20 -52 26 -48 48 2 14 -2 36 -9 50 -8 14 -14
34 -14 45 0 15 6 9 24 -20 26 -42 51 -65 71 -65 16 0 114 129 114 150 0 10 -9
20 -21 23 -12 3 -18 10 -14 17 5 8 13 6 26 -6 16 -14 24 -15 44 -6 31 14 45
49 45 112 0 55 3 58 62 69 70 14 88 13 89 -6z m-226 -45 c-13 -44 -35 -67 -69
-74 -45 -8 -56 0 -56 41 0 32 3 34 43 43 74 17 89 15 82 -10z m-650 -155 c21
-54 46 -112 56 -129 26 -43 24 -85 -9 -179 -28 -78 -98 -205 -117 -212 -13 -4
-9 248 6 452 10 138 14 165 24 165 1 0 20 -44 40 -97z m442 55 c-3 -7 -5 -2
-5 12 0 14 2 19 5 13 2 -7 2 -19 0 -25z m2316 -293 c26 -115 41 -216 27 -180
-5 11 -20 51 -35 89 -14 38 -38 85 -53 104 -25 33 -27 42 -25 130 1 52 5 106
8 121 8 28 24 -26 78 -264z m-857 238 c-8 -16 -25 -40 -39 -54 -13 -15 -27
-34 -30 -43 -4 -9 -14 -16 -23 -16 -16 0 -73 -36 -86 -55 -10 -14 -10 -4 3 55
9 42 15 51 37 55 38 8 108 44 128 66 24 26 27 24 10 -8z m1220 -300 c-7 -119
-46 -284 -83 -356 -25 -49 -76 -108 -153 -176 l-70 -62 -42 29 c-24 16 -63 40
-88 52 l-45 23 25 16 c82 54 181 134 212 172 43 52 122 185 193 322 28 53 52
97 54 97 2 0 1 -53 -3 -117z m-2626 66 c0 -5 -4 -9 -10 -9 -5 0 -10 7 -10 16
0 8 5 12 10 9 6 -3 10 -10 10 -16z m-28 -51 c-7 -7 -12 -8 -12 -2 0 6 3 14 7
17 3 4 9 5 12 2 2 -3 -1 -11 -7 -17z m-3357 -218 c-24 -52 -31 -45 -9 9 9 23
19 39 22 37 3 -3 -3 -24 -13 -46z m3031 -107 c-37 -66 -87 -143 -92 -143 -2 0
-3 6 -1 13 1 6 -4 11 -11 9 -17 -3 0 30 37 74 14 17 39 48 54 68 42 55 50 43
13 -21z m-160 15 c-3 -18 -20 -66 -37 -107 -34 -82 -35 -131 -5 -191 9 -18 15
-35 13 -37 -11 -11 -86 61 -106 101 -33 68 -20 108 67 198 36 37 68 68 70 68
3 0 2 -15 -2 -32z m2678 -80 l69 -11 -24 -18 c-13 -10 -43 -29 -66 -41 -34
-18 -47 -20 -70 -12 -17 6 -26 16 -24 25 2 8 3 29 2 48 -2 31 0 33 21 27 13
-4 54 -12 92 -18z m-1656 -100 c-41 -51 -96 -124 -123 -163 -27 -38 -52 -74
-56 -79 -7 -8 -49 76 -49 99 0 22 287 252 299 240 2 -2 -30 -46 -71 -97z
m-3889 -215 c-18 -61 -19 -309 -2 -338 11 -17 12 -11 13 40 0 67 27 186 29
129 3 -111 61 -305 91 -303 30 2 39 -1 49 -19 8 -15 4 -26 -20 -52 -17 -18
-49 -57 -71 -87 -25 -32 -47 -52 -54 -49 -9 3 -16 -5 -20 -22 -4 -15 -27 -63
-52 -106 -54 -93 -56 -91 -66 63 -4 56 -12 128 -17 158 -12 65 0 212 31 366
25 122 35 155 67 225 30 64 41 61 22 -5z m2914 -64 c144 -102 251 -118 356
-50 33 22 49 27 62 20 30 -16 72 -10 119 17 24 14 46 21 48 16 2 -6 22 -48 44
-94 49 -98 51 -137 19 -296 -27 -131 -41 -272 -34 -353 l5 -64 -57 83 c-84
125 -160 252 -220 373 -51 101 -121 219 -129 219 -5 0 84 -201 127 -286 41
-84 90 -163 191 -314 l78 -115 -6 -74 c-3 -41 -6 -110 -6 -153 0 -52 -4 -78
-11 -76 -5 2 -36 60 -67 130 -31 70 -58 126 -59 124 -11 -10 33 -139 80 -240
45 -93 58 -132 63 -185 3 -36 12 -86 20 -111 12 -40 11 -51 -6 -100 l-19 -55
-16 40 c-69 172 -130 313 -133 310 -5 -4 64 -215 115 -350 34 -93 37 -107 37
-210 -1 -88 -7 -136 -32 -240 -48 -200 -99 -372 -105 -355 -3 8 -22 83 -42
165 -20 83 -58 245 -86 360 -54 226 -89 377 -119 520 -11 50 -31 144 -45 210
-118 551 -242 1175 -235 1175 4 0 32 -18 63 -41z m-2083 -7 c0 -4 16 -7 35 -6
26 2 43 -6 72 -33 34 -30 35 -33 13 -27 -14 4 -37 15 -52 25 -33 24 -39 24
-72 -2 -15 -12 -53 -28 -84 -36 -31 -8 -73 -25 -92 -37 -45 -29 -80 -41 -80
-26 0 19 32 60 46 60 8 0 14 4 14 8 0 15 81 54 101 49 12 -3 22 0 26 9 4 12 8
12 21 2 10 -9 13 -9 9 -1 -4 7 0 13 10 16 29 8 33 7 33 -1z m5130 -91 c0 -10
6 -21 13 -24 10 -4 16 -40 20 -134 4 -70 9 -141 11 -158 11 -74 16 -135 12
-135 -2 0 -22 29 -44 65 -30 47 -48 66 -69 70 -15 4 -41 11 -57 16 -37 11 -99
11 -151 -1 -22 -5 -41 -7 -44 -5 -2 3 19 25 47 50 63 57 114 126 136 185 14
38 25 49 64 67 59 27 62 27 62 4z m-4913 -228 c50 -33 83 -71 83 -93 0 -6 -11
-22 -25 -35 -20 -21 -34 -25 -82 -25 -57 0 -58 0 -116 61 -32 34 -60 60 -62
57 -8 -8 17 -95 41 -137 13 -24 23 -45 21 -47 -2 -2 -24 3 -50 11 -82 24 -157
28 -222 11 -32 -8 -60 -14 -62 -13 -1 2 17 28 41 58 88 112 261 207 351 192
17 -2 53 -20 82 -40z m123 -198 c13 -68 5 -229 -10 -206 -5 9 -9 4 -12 -13 -3
-14 -1 -23 3 -20 5 3 9 0 9 -5 0 -6 -7 -11 -15 -11 -17 0 -20 -11 -6 -25 14
-15 -16 -92 -54 -145 -59 -79 -110 -123 -147 -124 -21 -1 -32 -6 -30 -14 2
-10 -2 -10 -19 -1 -12 6 -19 7 -15 1 19 -31 -205 -17 -273 17 -22 12 -42 17
-46 11 -7 -11 110 -110 130 -110 7 0 20 -6 27 -13 26 -27 89 -40 157 -34 108
10 187 41 264 104 16 13 34 20 39 17 6 -4 8 -3 5 3 -4 6 5 21 19 34 36 33 79
113 103 189 20 64 23 76 37 174 l7 50 28 -55 c33 -63 35 -95 13 -233 -16 -105
-39 -200 -81 -325 -25 -77 -77 -189 -95 -206 -6 -5 -4 4 4 20 38 77 99 328 83
343 -7 7 -8 5 -33 -50 -12 -27 -27 -48 -33 -48 -5 0 -7 -4 -4 -10 5 -8 -79
-148 -119 -197 -73 -89 -90 -108 -110 -124 -13 -10 -27 -15 -32 -11 -5 4 -6 3
-2 -2 17 -21 -117 -90 -256 -132 -93 -28 -123 -29 -191 -5 l-50 18 75 6 c41 3
92 13 113 21 42 18 119 84 112 96 -2 4 -30 0 -62 -8 -48 -12 -72 -13 -138 -3
-165 23 -234 42 -260 71 -15 17 -17 31 -12 87 3 38 13 85 21 105 9 21 16 63
16 95 0 32 9 92 21 133 11 41 23 84 25 94 12 60 48 141 134 301 24 44 44 81
46 83 1 2 35 11 76 21 96 24 202 9 321 -43 31 -14 57 -23 57 -21 0 3 -18 28
-40 56 -22 28 -40 55 -40 60 0 12 27 12 35 -1 17 -28 158 1 171 35 12 29 22
14 34 -50z m341 -505 c29 -80 79 -208 111 -285 60 -140 228 -485 268 -549 11
-19 17 -37 13 -39 -30 -19 -504 -204 -615 -241 -257 -85 -416 -97 -530 -42
-86 43 -169 116 -242 213 -95 126 -199 329 -212 414 l-7 39 29 -15 c41 -20
222 -55 286 -55 81 0 42 -15 -93 -36 l-119 -18 22 -23 c12 -13 46 -32 77 -44
99 -37 219 -16 390 69 96 47 190 135 271 253 34 49 63 89 65 89 4 0 -3 -20
-50 -150 -9 -25 -26 -61 -37 -80 -12 -19 -30 -51 -42 -70 l-21 -35 40 32 c138
108 200 222 270 498 18 72 36 164 40 205 7 73 8 74 21 45 7 -16 37 -95 65
-175z m2085 18 c6 -13 9 -50 8 -83 -8 -227 -7 -247 25 -349 32 -101 38 -132
21 -106 -6 10 -10 11 -10 3 0 -26 -17 -12 -38 30 -44 88 -54 146 -59 323 -5
150 -3 172 12 187 22 22 30 21 41 -5z m-2789 -154 c-3 -3 -12 -4 -19 -1 -8 3
-5 6 6 6 11 1 17 -2 13 -5z m7170 -439 c-2 -165 -9 -270 -20 -335 -41 -236
-66 -402 -72 -483 l-7 -89 -29 28 c-39 37 -118 40 -166 7 -17 -13 -33 -23 -35
-23 -3 0 5 52 18 115 12 63 25 138 28 167 9 77 54 304 73 368 25 86 103 316
140 415 19 50 39 106 45 125 l11 35 9 -45 c4 -25 7 -153 5 -285z m-1357 295
c0 -5 -4 -10 -10 -10 -5 0 -10 5 -10 10 0 6 5 10 10 10 6 0 10 -4 10 -10z
m207 -106 c62 -60 72 -85 35 -83 -11 0 -12 2 -4 6 30 12 -57 103 -120 126 -26
9 -22 26 4 20 11 -4 50 -34 85 -69z m-117 -74 c-11 -7 -11 -10 -2 -10 13 0
-77 -110 -90 -110 -4 0 -5 12 -3 28 2 15 4 34 4 42 1 11 3 12 9 3 10 -16 75
15 68 33 -5 14 2 24 18 24 6 0 4 -5 -4 -10z m84 -48 c3 -5 -11 -24 -30 -43
-20 -19 -58 -66 -85 -106 -65 -95 -73 -99 -64 -32 8 57 13 66 84 142 42 44 82
60 95 39z m-2336 -364 c6 -6 38 -12 69 -13 100 -3 110 -4 110 -20 0 -8 -4 -12
-9 -9 -4 3 -8 0 -8 -6 0 -13 -152 -10 -161 4 -4 5 -19 4 -35 -1 -23 -7 -38
-27 -77 -103 -27 -52 -50 -102 -51 -110 -2 -8 -9 -14 -14 -13 -7 2 -9 -4 -5
-14 5 -12 3 -14 -7 -8 -8 5 -11 4 -6 -3 7 -11 -8 -45 -33 -71 -11 -13 -12 -10
-7 20 11 51 66 220 84 254 9 17 16 33 17 38 0 4 4 8 10 10 5 1 20 12 33 24 13
12 33 24 45 26 12 2 24 5 28 6 3 0 10 -4 17 -11z m-2391 -90 c-3 -8 -6 -5 -6
6 -1 11 2 17 5 13 3 -3 4 -12 1 -19z m2156 -313 c-3 -9 -8 -14 -10 -11 -3 3
-2 9 2 15 9 16 15 13 8 -4z m-879 -81 c3 -8 2 -12 -4 -9 -6 3 -10 10 -10 16 0
14 7 11 14 -7z m696 -322 c51 -51 59 -65 64 -108 20 -153 57 -251 137 -361 23
-32 105 -122 183 -200 l140 -143 -39 1 c-22 0 -88 4 -147 8 -99 8 -110 11
-147 40 -24 19 -42 43 -46 61 -4 17 -14 34 -23 39 -9 4 -70 11 -134 14 l-117
5 -38 -29 c-69 -52 -70 -37 -5 74 l49 82 6 190 c9 234 28 385 49 385 5 0 36
-26 68 -58z m3321 -163 c-9 -22 -10 -22 -10 -3 -1 11 2 24 6 27 12 12 14 0 4
-24z m779 -189 c-16 -40 -23 -33 -9 9 6 18 14 30 17 27 2 -3 -1 -19 -8 -36z
m-4511 -268 c0 -55 -18 -114 -36 -120 -10 -3 -13 19 -13 86 0 49 3 92 6 95 4
3 15 2 25 -4 15 -7 19 -21 18 -57z m310 -55 c-2 -1 -13 -9 -24 -17 -19 -14
-19 -14 -6 3 7 9 18 17 24 17 6 0 8 -1 6 -3z m930 -71 c-9 -8 -10 -7 -5 7 3
10 7 24 7 30 1 7 3 4 6 -7 3 -10 -1 -23 -8 -30z m-853 25 c-4 -5 2 -7 11 -5
10 3 27 -2 38 -11 19 -16 18 -16 -20 -10 -22 4 -46 7 -52 7 -26 2 -9 24 20 27
5 1 6 -3 3 -8z m-122 -23 c-6 -10 -5 -10 7 -2 17 14 69 15 69 2 0 -5 -7 -16
-15 -24 -8 -9 -15 -12 -15 -8 0 4 -7 -1 -16 -12 -8 -10 -13 -14 -10 -7 5 8 -2
8 -21 -2 -16 -7 -38 -16 -50 -20 -22 -6 -24 -4 -27 25 -1 6 17 21 39 34 49 29
48 29 39 14z m-849 -38 c3 -5 16 -10 28 -10 l22 -1 -23 -12 c-12 -7 -38 -38
-58 -70 -30 -48 -40 -57 -64 -57 -37 0 -44 13 -26 47 46 88 101 135 121 103z
m1053 -76 c18 -12 20 -19 12 -33 -10 -20 -67 -35 -94 -25 -9 3 -24 0 -33 -7
-14 -12 -16 -12 -8 0 5 9 4 12 -3 7 -6 -3 -14 -21 -17 -39 -10 -43 -12 -46
-35 -40 -11 3 -17 9 -14 14 3 5 -1 9 -8 9 -9 0 -10 3 -2 8 6 4 10 15 8 25 -1
9 2 17 7 17 6 0 8 4 5 9 -8 13 38 51 81 66 40 15 64 12 101 -11z m-478 6 c13
-9 9 -15 -19 -40 -19 -16 -36 -28 -38 -27 -1 2 2 20 8 40 10 38 22 44 49 27z
m1193 -55 c-3 -9 -8 -14 -10 -11 -3 3 -2 9 2 15 9 16 15 13 8 -4z m152 -47
c-19 -69 -38 -109 -47 -100 -14 14 -2 73 20 100 22 28 35 28 27 0z m1041 -16
c13 -48 14 -57 8 -84 -5 -25 -8 -27 -27 -16 -12 6 -22 10 -22 9 0 -2 -12 3
-27 9 -22 10 -33 10 -58 0 -41 -17 -47 -8 -21 36 18 31 19 35 5 30 -14 -5 -15
-4 -4 9 15 18 98 44 121 38 10 -3 21 -17 25 -31z m-2772 13 c-1 -5 -16 -18
-34 -28 -27 -15 -35 -16 -49 -5 -14 11 -14 11 -3 -3 10 -14 9 -23 -7 -50 -11
-20 -24 -73 -31 -124 -6 -49 -13 -92 -16 -94 -7 -8 -4 122 5 186 9 63 30 96
76 122 23 13 61 10 59 -4z m626 -80 l0 -65 -44 0 c-24 0 -51 -3 -60 -6 -13 -5
-16 1 -16 27 0 19 4 39 8 45 8 12 93 64 105 64 4 0 7 -29 7 -65z m2406 51 c3
-8 19 -19 36 -25 26 -9 29 -13 18 -26 -10 -12 -10 -15 0 -15 8 0 11 -3 7 -6
-8 -8 -168 -11 -173 -2 -7 12 29 77 45 81 34 10 62 6 67 -7z m-3423 -72 c3
-27 13 -54 27 -69 l22 -23 -59 -7 c-32 -3 -78 -10 -102 -16 -24 -5 -45 -8 -48
-5 -10 10 39 85 81 124 59 54 72 54 79 -4z m1974 4 c-3 -8 -6 -5 -6 6 -1 11 2
17 5 13 3 -3 4 -12 1 -19z m-1759 -80 c-5 -46 -7 -90 -4 -99 3 -15 -6 -17 -68
-15 -39 0 -86 -3 -104 -7 l-34 -9 16 30 c33 65 156 178 197 182 3 0 1 -37 -3
-82z m3331 28 c-3 -3 -11 5 -18 17 -13 21 -12 21 5 5 10 -10 16 -20 13 -22z
m373 -9 c28 -45 47 -107 33 -107 -5 0 -16 7 -25 15 -9 8 -29 16 -44 17 -22 2
-26 6 -20 23 3 11 8 37 11 58 3 20 8 37 12 37 3 0 18 -20 33 -43z m-1410 4 c2
-9 -9 -34 -24 -55 -15 -21 -28 -47 -28 -56 0 -9 -3 -20 -7 -24 -8 -8 -9 -13
-11 -68 -2 -34 -5 -38 -27 -36 -23 2 -25 6 -25 54 0 28 7 71 15 94 8 24 17 53
19 66 3 13 10 29 17 37 17 17 67 9 71 -12z m1281 -69 c28 -61 46 -162 30 -162
-5 0 -20 11 -33 25 -19 20 -33 25 -71 25 -37 0 -49 4 -53 18 -22 77 -14 117
31 164 l27 28 22 -21 c12 -11 33 -46 47 -77z m-1519 37 c-3 -5 -12 -9 -21 -9
-8 0 -28 -14 -45 -32 -24 -26 -31 -29 -39 -17 -5 8 -9 9 -9 4 0 -6 -9 -11 -20
-11 -11 0 -20 6 -20 12 0 17 58 64 105 85 39 18 40 18 47 -2 5 -12 6 -25 2
-30z m1200 -7 c37 -73 58 -155 50 -197 -5 -28 -10 -35 -23 -29 -9 4 -36 13
-61 21 -25 8 -52 18 -60 22 -19 10 -42 106 -34 143 6 32 47 75 77 81 12 2 23
5 24 6 2 0 14 -21 27 -47z m-376 -38 c4 -92 -2 -121 -39 -179 l-31 -49 -14 24
c-29 54 -5 229 37 263 34 28 44 16 47 -59z m-1084 -20 c8 -21 3 -28 -38 -52
-43 -25 -53 -10 -25 37 20 33 53 41 63 15z m46 -21 c0 -15 2 -16 10 -3 7 11
10 3 9 -30 0 -25 -3 -39 -6 -32 -2 6 -9 12 -14 12 -6 0 -7 -4 -4 -10 13 -22
-6 -8 -20 14 -13 19 -14 29 -5 45 13 26 30 27 30 4z m206 -14 c21 -41 14 -74
-33 -146 l-37 -58 -8 35 c-24 108 -3 181 59 199 1 1 10 -13 19 -30z m461 -116
c-6 -69 -14 -103 -26 -103 -12 0 -51 70 -51 94 0 31 36 76 62 76 20 0 21 -4
15 -67z m40 -40 c-3 -10 -5 -4 -5 12 0 17 2 24 5 18 2 -7 2 -21 0 -30z"/>
<path d="M8114 5605 c2 -27 21 -97 41 -155 82 -236 218 -726 250 -905 9 -49
29 -139 45 -200 53 -198 61 -254 64 -415 2 -130 6 -165 25 -220 44 -126 52
-128 45 -10 -9 160 -43 432 -70 560 -13 63 -54 234 -89 380 -36 146 -70 288
-76 315 -50 230 -120 453 -185 587 -54 113 -55 113 -50 63z"/>
<path d="M1382 3155 c4 -4 0 -14 -10 -21 -9 -7 -15 -14 -12 -17 3 -2 13 4 23
13 15 14 16 20 5 26 -7 4 -10 4 -6 -1z"/>
<path d="M1549 3053 c-13 -16 -12 -17 4 -4 9 7 17 15 17 17 0 8 -8 3 -21 -13z"/>
</g>
</svg>
